# xmcd
#
# Track frame offsets: 
#        150
#        9548
#        18270
#        29806
#        44402
#        54089
#        66015
#        78970
#        95513
#        109296
#        124657
#        134771
#
# Disc length: 1985 seconds
#
# Revision: 0
# Processed by: cddbd v1.5.2PL0 Copyright (c) Steve Scherf et al.
# Submitted via: ExactAudioCopyFreeDBPlugin 1.0
#
DISCID=9e07bf0c
DTITLE=Sasho Zver - Guitar Tales
DYEAR=2008
DGENRE=Acoustic
TTITLE0=Heat in Nashville
TTITLE1=Come on, Foot!
TTITLE2=Mark's Suite
TTITLE3=Eternity
TTITLE4=Mojca
TTITLE5=More Love
TTITLE6=Highlander's Aire
TTITLE7=Long Story Short
TTITLE8=Lou Cee
TTITLE9=Blue Jay
TTITLE10=Play That Rag
TTITLE11=Snowflake
EXTD=
EXTT0=
EXTT1=
EXTT2=
EXTT3=
EXTT4=
EXTT5=
EXTT6=
EXTT7=
EXTT8=
EXTT9=
EXTT10=
EXTT11=
PLAYORDER=
